# xmcd CD database file
#
# Track frame offsets:
#	150
#	21380
#	43327
#	69417
#	91245
#	112230
#	131702
#	155025
#	175827
#	197700
#	216125
#
# Disc length: 3201 seconds
#
# Revision: 0
# Processed by: cddbd v1.5.1PL0 Copyright (c) Steve Scherf et al.
# Submitted via: CDex 1.51
#
DISCID=a50c7f0b
DTITLE=鈴木結女 - Moving
DYEAR=1997
DGENRE=J ポップ
TTITLE0=Holiday
TTITLE1=PARTY NITE
TTITLE2=たどりつけないメロディー
TTITLE3=I Can Tell You Why
TTITLE4=ずっと信じて・・・
TTITLE5=Sweet Intuition
TTITLE6=NEVER LATE FOR LOVE
TTITLE7=LOVE WON'T FADE
TTITLE8=タイムマシーン
TTITLE9=月のように
TTITLE10=Inner Child
EXTD=YEAR: 1997
EXTT0=
EXTT1=
EXTT2=
EXTT3=
EXTT4=
EXTT5=
EXTT6=
EXTT7=
EXTT8=
EXTT9=
EXTT10=
PLAYORDER=
